<svg width="1440" height="2015" viewBox="0 0 1440 2015" fill="none" xmlns="http://www.w3.org/2000/svg">
<path d="M812.469 722.377C989.684 770.303 1140.62 845.644 1241.38 928.69C1291.77 970.213 1329.59 1013.65 1351.9 1056.53C1374.21 1099.4 1380.98 1141.7 1369.33 1180.97C1357.67 1220.25 1328.67 1252.87 1286.13 1278.21C1243.58 1303.55 1187.51 1321.59 1121.8 1331.72C990.385 1351.97 820.488 1340.55 643.273 1292.62C466.058 1244.7 315.125 1169.36 214.357 1086.31C163.973 1044.79 126.148 1001.35 103.841 958.475C81.5361 915.599 74.7587 873.306 86.413 834.027C98.0674 794.748 127.071 762.132 169.615 736.794C212.163 711.454 268.229 693.411 333.938 683.283C465.357 663.029 635.254 674.452 812.469 722.377Z" stroke="#2E2E2E"/>
<path d="M817.106 723.678C993.312 774.906 1142.81 853.091 1242.08 938.065C1291.71 980.552 1328.77 1024.72 1350.34 1068.05C1371.9 1111.37 1377.97 1153.83 1365.68 1192.93C1353.38 1232.03 1323.87 1264.14 1280.96 1288.72C1238.04 1313.3 1181.74 1330.33 1115.94 1339.25C984.346 1357.11 814.842 1342.55 638.636 1291.32C462.43 1240.1 312.931 1161.91 213.664 1076.94C164.03 1034.45 126.972 990.28 105.405 946.952C83.8392 903.628 77.7728 861.173 90.0659 822.073C102.359 782.973 131.87 750.861 174.784 726.283C217.702 701.703 274 684.675 339.799 675.747C471.396 657.892 640.9 672.45 817.106 723.678Z" stroke="#2E2E2E"/>
<path d="M821.716 725.065C996.859 779.58 1144.88 860.585 1242.62 947.461C1340.39 1034.37 1387.69 1127.01 1361.83 1204.83C1335.97 1282.65 1241.75 1331.23 1109.96 1346.69C978.228 1362.14 809.17 1344.45 634.027 1289.94C458.884 1235.42 310.863 1154.42 213.127 1067.54C115.353 980.63 68.056 887.994 93.9131 810.174C119.77 732.355 213.991 683.768 345.779 668.311C477.514 652.86 646.572 670.55 821.716 725.065Z" stroke="#2E2E2E"/>
<path d="M826.297 726.538C1000.32 784.324 1146.82 868.124 1243 956.875C1339.21 1045.66 1384.91 1139.25 1357.79 1216.66C1330.67 1294.08 1235.75 1340.98 1103.87 1354.02C972.034 1367.06 803.473 1346.25 629.446 1288.46C455.419 1230.68 308.922 1146.88 212.747 1058.13C116.535 969.339 70.8339 875.751 97.9532 798.337C125.073 720.923 219.988 674.025 351.874 660.979C483.708 647.938 652.27 668.753 826.297 726.538Z" stroke="#2E2E2E"/>
<path d="M830.847 728.097C1003.71 789.136 1148.63 875.705 1243.22 966.306C1337.84 1056.94 1381.93 1151.45 1353.56 1228.44C1325.18 1305.42 1229.6 1350.62 1097.66 1361.25C965.765 1371.88 797.752 1347.94 624.894 1286.9C452.037 1225.87 307.108 1139.3 212.524 1048.7C117.902 958.06 73.8116 863.547 102.185 786.563C130.558 709.578 226.139 664.385 358.084 653.753C489.977 643.125 657.99 667.059 830.847 728.097Z" stroke="#2E2E2E"/>
<path d="M835.367 729.741C1007 794.014 1150.32 883.327 1243.28 975.748C1336.29 1068.21 1378.75 1163.61 1349.13 1240.15C1319.52 1316.68 1223.3 1360.15 1091.34 1368.37C959.425 1376.58 792.011 1349.53 620.375 1285.26C448.739 1220.99 305.423 1131.67 212.458 1039.25C119.456 946.796 76.989 851.387 106.608 774.855C136.226 698.323 232.444 654.848 364.407 646.633C496.318 638.422 663.731 665.468 835.367 729.741Z" stroke="#2E2E2E"/>
<path d="M839.854 731.469C1010.22 798.957 1151.88 890.986 1243.19 985.199C1334.55 1079.45 1375.38 1175.73 1344.52 1251.78C1313.67 1327.84 1216.84 1369.58 1084.9 1375.38C953.013 1381.17 786.25 1351.02 615.888 1283.53C445.526 1216.04 303.867 1124.01 212.549 1029.8C121.196 935.55 80.3645 839.274 111.22 763.219C142.075 687.163 238.899 645.419 370.84 639.624C502.729 633.832 669.492 663.982 839.854 731.469Z" stroke="#2E2E2E"/>
<path d="M844.307 733.282C1013.34 803.963 1153.3 898.68 1242.95 994.658C1332.62 1090.67 1371.81 1187.79 1339.72 1263.34C1307.64 1338.9 1210.24 1378.9 1078.36 1382.27C946.533 1385.64 780.471 1352.4 611.435 1281.72C442.399 1211.04 302.439 1116.32 212.797 1020.34C123.119 924.326 83.9371 827.213 116.019 751.657C148.101 676.1 245.503 636.099 377.382 632.727C509.209 629.355 675.271 662.6 844.307 733.282Z" stroke="#2E2E2E"/>
<path d="M848.724 735.178C1016.38 809.032 1154.6 906.408 1242.54 1004.12C1330.52 1101.87 1368.04 1199.79 1334.74 1274.83C1301.44 1349.86 1203.49 1388.11 1071.71 1389.06C939.987 1390.01 774.677 1353.68 607.018 1279.82C439.36 1205.97 301.142 1108.59 213.202 1010.88C125.227 913.127 87.706 815.207 121.005 740.173C154.304 665.139 252.254 626.894 384.031 625.944C515.756 624.995 681.066 661.324 848.724 735.178Z" stroke="#2E2E2E"/>
<path d="M853.105 737.157C1019.33 814.162 1155.77 914.168 1241.98 1013.59C1328.22 1113.04 1364.07 1211.74 1329.57 1286.23C1295.06 1360.72 1196.59 1397.2 1064.96 1395.72C933.376 1394.25 768.868 1354.85 602.638 1277.84C436.408 1200.84 299.974 1100.83 213.763 1001.41C127.519 901.958 91.6697 803.259 126.176 728.771C160.682 654.282 259.15 617.805 390.784 619.278C522.367 620.751 686.875 660.153 853.105 737.157Z" stroke="#2E2E2E"/>
<path d="M857.447 739.219C1022.2 819.35 1156.81 921.955 1241.26 1023.05C1325.75 1124.18 1359.92 1223.63 1324.21 1297.55C1288.51 1371.47 1189.55 1406.17 1058.1 1402.27C926.702 1398.38 763.046 1355.91 598.295 1275.78C433.544 1195.65 298.936 1093.05 214.481 991.952C129.993 890.82 95.827 791.374 131.53 717.453C167.232 643.533 266.188 608.834 397.64 612.73C529.04 616.624 692.696 659.088 857.447 739.219Z" stroke="#2E2E2E"/>
<path d="M861.75 741.362C1024.97 824.595 1157.71 929.768 1240.39 1032.51C1323.09 1135.28 1355.57 1235.45 1318.68 1308.78C1281.79 1382.11 1182.38 1415.02 1051.15 1408.7C919.968 1402.38 757.214 1356.87 593.993 1273.64C430.771 1190.4 298.029 1085.23 215.356 982.494C132.65 879.717 100.177 779.554 137.065 706.224C173.953 632.894 273.367 599.984 404.597 606.302C535.775 612.616 698.529 658.129 861.75 741.362Z" stroke="#2E2E2E"/>
<path d="M866.012 743.586C1027.65 829.896 1158.49 937.605 1239.36 1041.95C1320.26 1146.35 1351.02 1247.2 1312.96 1319.91C1274.9 1392.63 1175.06 1423.74 1044.09 1415C913.175 1406.27 751.373 1357.72 589.731 1271.41C428.088 1185.1 297.253 1077.39 216.386 973.044C135.487 868.654 104.719 767.803 142.781 695.086C180.844 622.369 280.685 591.259 411.652 599.996C542.567 608.729 704.37 657.276 866.012 743.586Z" stroke="#2E2E2E"/>
<path d="M870.232 745.89C1030.25 835.251 1159.13 945.464 1238.17 1051.39C1317.24 1157.37 1346.29 1258.87 1307.07 1330.95C1267.84 1403.04 1167.6 1432.34 1036.94 1421.18C906.326 1410.04 745.525 1358.47 585.511 1269.11C425.497 1179.75 296.609 1069.53 217.573 963.604C138.506 857.632 109.45 756.125 148.675 684.043C187.9 611.962 288.139 582.66 418.803 593.814C549.417 604.963 710.218 656.53 870.232 745.89Z" stroke="#2E2E2E"/>
<path d="M874.409 748.276C1032.75 840.66 1159.65 953.342 1236.83 1060.82C1314.04 1168.34 1341.37 1270.47 1301 1341.9C1260.62 1413.32 1160.02 1440.81 1029.69 1427.24C899.423 1413.68 739.671 1359.11 581.334 1266.72C422.997 1174.34 296.095 1061.66 218.914 954.179C141.703 846.657 114.369 744.525 154.745 673.1C195.121 601.676 295.726 574.191 426.048 587.759C556.32 601.321 716.071 655.891 874.409 748.276Z" stroke="#2E2E2E"/>
<path d="M878.541 750.739C1035.15 846.119 1160.03 961.236 1235.33 1070.23C1310.66 1179.27 1336.27 1282 1294.75 1352.74C1253.24 1423.49 1152.3 1449.15 1022.36 1433.17C892.467 1417.2 733.814 1359.64 577.202 1264.26C420.59 1168.88 295.713 1053.76 220.411 944.769C145.079 835.731 119.476 733.005 160.99 662.259C202.504 591.513 303.445 565.855 433.386 581.831C563.276 597.802 721.929 655.36 878.541 750.739Z" stroke="#2E2E2E"/>
<path d="M882.627 753.281C1037.47 851.627 1160.28 969.144 1233.68 1079.62C1307.11 1190.14 1330.98 1293.43 1288.34 1363.48C1245.7 1433.52 1144.45 1457.35 1014.93 1438.97C885.461 1420.59 727.955 1360.06 573.116 1261.72C418.277 1163.37 295.463 1045.86 222.063 935.378C148.633 824.856 124.767 721.567 167.407 651.522C210.047 581.477 311.293 557.652 440.813 576.033C570.281 594.407 727.788 654.935 882.627 753.281Z" stroke="#2E2E2E"/>
<path d="M886.665 755.9C1039.68 857.182 1160.4 977.064 1231.87 1088.99C1267.61 1144.96 1291.03 1198.91 1300.03 1247.54C1309.03 1296.17 1303.62 1339.45 1281.75 1374.11C1259.87 1408.77 1223.56 1431.59 1176.57 1443.16C1129.58 1454.72 1071.92 1455.02 1007.42 1444.63C878.407 1423.86 722.096 1360.38 569.077 1259.1C416.058 1157.82 295.344 1037.94 223.868 926.009C188.129 870.045 164.713 816.09 155.71 767.458C146.708 718.83 152.12 675.554 173.995 640.894C195.871 606.233 232.179 583.407 279.171 571.841C326.167 560.275 383.823 559.981 448.327 570.367C577.335 591.139 733.647 654.618 886.665 755.9Z" stroke="#2E2E2E"/>
<path d="M890.656 758.596C1041.81 862.783 1160.39 984.993 1229.92 1098.33C1264.68 1155.01 1287.17 1209.44 1295.36 1258.28C1303.54 1307.12 1297.42 1350.33 1274.99 1384.62C1252.57 1418.91 1215.92 1441.09 1168.79 1451.8C1121.66 1462.51 1064.07 1461.75 999.816 1450.17C871.308 1427 716.239 1360.59 565.087 1256.4C413.935 1152.22 295.358 1030.01 225.827 916.665C191.061 859.993 168.57 805.559 160.386 756.718C152.202 707.881 158.327 664.666 180.752 630.377C203.178 596.087 239.821 573.908 286.949 563.197C334.081 552.485 391.672 553.251 455.927 564.833C584.435 587.997 739.504 654.408 890.656 758.596Z" stroke="#2E2E2E"/>
<path d="M894.597 761.367C1043.84 868.429 1160.24 992.929 1227.8 1107.65C1261.59 1165.01 1283.15 1219.91 1290.51 1268.95C1297.87 1317.98 1291.04 1361.12 1268.07 1395.02C1245.1 1428.93 1208.13 1450.46 1160.88 1460.31C1113.63 1470.16 1056.12 1468.34 992.134 1455.57C864.165 1430.02 710.386 1360.69 561.146 1253.63C411.906 1146.57 295.503 1022.07 227.939 907.348C194.157 849.986 172.597 795.089 165.234 746.054C157.872 697.023 164.708 653.882 187.676 619.975C210.644 586.068 247.612 564.543 294.862 554.689C342.115 544.835 399.624 546.66 463.609 559.434C591.578 584.983 745.358 654.306 894.597 761.367Z" stroke="#2E2E2E"/>
<path d="M898.487 764.214C1045.77 874.117 1159.96 1000.87 1225.54 1116.94C1258.33 1174.97 1278.95 1230.32 1285.49 1279.53C1292.03 1328.74 1284.48 1371.79 1260.98 1405.31C1237.47 1438.82 1200.19 1459.69 1152.84 1468.68C1105.48 1477.68 1048.07 1474.79 984.371 1460.83C856.98 1432.9 704.537 1360.69 557.255 1250.79C409.974 1140.88 295.779 1014.13 230.203 898.063C197.414 840.028 176.793 784.685 170.254 735.471C163.715 686.26 171.259 643.207 194.763 609.692C218.267 576.177 255.548 555.313 302.905 546.319C350.266 537.325 407.675 540.21 471.372 554.173C598.762 582.098 751.205 654.312 898.487 764.214Z" stroke="#2E2E2E"/>
<path d="M902.325 767.134C1047.6 879.844 1159.56 1008.81 1223.12 1126.19C1254.91 1184.88 1274.59 1240.65 1280.3 1290.03C1286.01 1339.41 1277.76 1382.36 1253.73 1415.47C1229.7 1448.58 1192.11 1468.78 1144.66 1476.91C1097.21 1485.04 1039.92 1481.1 976.53 1465.95C849.756 1435.66 698.696 1360.57 553.418 1247.86C408.14 1135.15 296.188 1006.19 232.619 888.809C200.834 830.119 181.157 774.348 175.444 724.969C169.731 675.594 177.982 632.641 202.014 599.528C226.047 566.416 263.63 546.219 311.079 538.088C358.532 529.957 415.825 533.901 479.213 549.048C605.987 579.341 757.047 654.424 902.325 767.134Z" stroke="#2E2E2E"/>
<path d="M906.11 770.129C1049.34 885.612 1159.02 1016.75 1220.56 1135.41C1251.33 1194.73 1270.06 1250.92 1274.94 1300.45C1279.83 1349.97 1270.87 1392.81 1246.32 1425.51C1221.76 1458.21 1183.89 1477.73 1136.36 1485C1088.83 1492.26 1031.67 1487.26 968.613 1470.94C842.495 1438.28 692.864 1360.35 549.633 1244.87C406.402 1129.39 296.728 998.246 235.186 879.593C204.414 820.265 185.688 764.082 180.802 714.554C175.916 665.03 184.871 622.19 209.425 589.49C233.978 556.79 271.851 537.267 319.379 530.002C366.911 522.737 424.069 527.738 487.129 544.064C613.248 576.717 762.879 654.646 906.11 770.129Z" stroke="#2E2E2E"/>
<path d="M909.841 773.195C1050.98 891.417 1158.34 1024.69 1217.84 1144.58C1247.59 1204.53 1265.36 1261.11 1269.42 1310.77C1273.47 1360.43 1263.82 1403.14 1238.75 1435.42C1213.68 1467.7 1175.53 1486.54 1127.94 1492.94C1080.34 1499.34 1023.34 1493.28 960.624 1475.78C835.199 1440.78 687.042 1360.03 545.902 1241.8C404.762 1123.58 297.399 990.306 237.903 870.415C208.154 810.468 190.383 753.89 186.326 704.228C182.27 654.569 191.926 611.856 216.993 579.579C242.061 547.302 280.213 528.458 327.804 522.06C375.399 515.663 432.406 521.72 495.119 539.221C620.544 574.222 768.701 654.974 909.841 773.195Z" stroke="#2E2E2E"/>
<path d="M913.516 776.333C1052.52 897.256 1157.54 1032.63 1214.97 1153.72C1243.69 1214.27 1260.5 1271.22 1263.73 1321.01C1266.95 1370.78 1256.6 1413.36 1231.03 1445.2C1205.45 1477.05 1167.03 1495.21 1119.39 1500.73C1071.75 1506.26 1014.91 1499.15 952.563 1480.48C827.87 1443.14 681.233 1359.59 542.227 1238.67C403.221 1117.74 298.201 982.372 240.769 861.279C212.052 800.731 195.243 743.776 192.016 693.994C188.789 644.216 199.144 601.643 224.717 569.798C250.291 537.954 288.71 519.794 336.351 514.267C383.995 508.739 440.833 515.85 503.18 534.52C627.873 571.86 774.51 655.409 913.516 776.333Z" stroke="#2E2E2E"/>
<path d="M917.134 779.541C1053.96 903.13 1156.61 1040.55 1211.96 1162.81C1239.64 1223.94 1255.48 1281.26 1257.87 1331.14C1260.27 1381.03 1249.22 1423.45 1223.15 1454.85C1197.08 1486.25 1158.4 1503.72 1110.73 1508.38C1063.05 1513.03 1006.4 1504.87 944.433 1485.04C820.511 1445.37 675.438 1359.05 538.608 1235.46C401.778 1111.87 299.134 974.446 243.783 852.187C216.107 791.057 200.264 733.741 197.869 683.856C195.473 633.974 206.522 591.553 232.594 560.151C258.666 528.748 297.341 511.279 345.016 506.623C392.695 501.967 449.347 510.13 511.309 529.964C635.232 569.631 780.304 655.952 917.134 779.541Z" stroke="#2E2E2E"/>
<path d="M920.695 782.819C1055.31 909.035 1155.54 1048.47 1208.8 1171.86C1235.42 1233.55 1250.3 1291.21 1251.86 1341.18C1253.42 1391.15 1241.68 1433.41 1215.12 1464.36C1188.56 1495.31 1149.64 1512.08 1101.94 1515.87C1054.24 1519.65 997.797 1510.44 936.238 1489.45C813.123 1447.47 669.659 1358.4 535.047 1232.18C400.435 1105.97 300.198 966.529 246.944 843.143C220.318 781.45 205.447 723.791 203.883 673.817C202.319 623.846 214.06 581.591 240.622 550.64C267.185 519.689 306.103 502.916 353.798 499.133C401.498 495.349 457.946 504.561 519.504 525.553C642.619 567.535 786.083 656.602 920.695 782.819Z" stroke="#2E2E2E"/>
<path d="M924.198 786.164C1056.55 914.97 1154.35 1056.37 1205.49 1180.85C1231.06 1243.09 1244.95 1301.07 1245.69 1351.12C1246.42 1401.17 1233.99 1443.24 1206.94 1473.73C1179.9 1504.22 1140.75 1520.29 1093.05 1523.2C1045.34 1526.11 989.116 1515.85 927.98 1493.71C805.711 1449.43 663.898 1357.64 531.545 1228.83C399.192 1100.03 301.392 958.625 250.253 834.148C224.683 771.909 210.789 713.925 210.057 663.878C209.326 613.834 221.755 571.757 248.799 541.267C275.844 510.778 314.994 494.705 362.695 491.796C410.4 488.886 466.627 499.145 527.763 521.288C650.032 565.573 791.845 657.358 924.198 786.164Z" stroke="#2E2E2E"/>
<path d="M927.64 789.578C1057.69 920.934 1153.03 1064.26 1202.04 1189.79C1226.54 1252.56 1239.46 1310.85 1239.35 1360.95C1239.25 1411.06 1226.14 1452.94 1198.62 1482.96C1171.1 1512.98 1131.73 1528.35 1084.04 1530.38C1036.34 1532.42 980.355 1521.11 919.661 1497.83C798.274 1451.25 658.157 1356.78 528.103 1225.42C398.049 1094.07 302.716 950.736 253.707 825.207C229.202 762.442 216.288 704.151 216.389 654.045C216.49 603.942 229.603 562.056 257.122 532.037C284.64 502.018 324.01 486.652 371.703 484.617C419.399 482.582 475.388 493.885 536.082 517.172C657.469 563.745 797.586 658.222 927.64 789.578Z" stroke="#2E2E2E"/>
<path d="M931.021 793.058C1058.74 926.924 1151.57 1072.14 1198.44 1198.68C1221.87 1261.95 1233.8 1320.53 1232.87 1370.68C1231.93 1420.83 1218.14 1462.51 1190.15 1492.05C1162.17 1521.59 1122.59 1536.24 1074.92 1537.4C1027.25 1538.56 971.517 1526.22 911.283 1501.8C790.815 1452.95 652.436 1355.81 524.721 1221.94C397.006 1088.08 304.17 942.864 257.305 816.322C233.873 753.05 221.942 694.468 222.876 644.319C223.81 594.174 237.603 552.492 265.587 522.953C293.571 493.413 333.149 478.757 380.818 477.598C428.491 476.439 484.225 488.781 544.46 513.206C664.927 562.054 803.306 659.192 931.021 793.058Z" stroke="#2E2E2E"/>
<path d="M934.341 796.603C1059.68 932.938 1149.99 1079.99 1194.7 1207.51C1217.05 1271.27 1227.99 1330.12 1226.23 1380.3C1224.46 1430.47 1209.99 1471.93 1181.55 1500.99C1153.11 1530.04 1113.33 1543.98 1065.7 1544.26C1018.07 1544.54 962.606 1531.17 902.849 1505.61C783.338 1454.5 646.739 1354.73 521.402 1218.4C396.065 1082.06 305.752 935.012 261.047 807.493C238.694 743.734 227.752 684.88 229.518 634.704C231.283 584.53 245.753 543.065 274.194 514.014C302.635 484.964 342.409 471.022 390.04 470.739C437.675 470.456 493.137 483.834 552.894 509.389C672.405 560.497 809.004 660.268 934.341 796.603Z" stroke="#2E2E2E"/>
<path d="M937.597 800.212C1060.52 938.975 1148.28 1087.82 1190.81 1216.27C1212.08 1280.5 1222.03 1339.61 1219.43 1389.8C1216.83 1439.98 1201.69 1481.22 1172.8 1509.77C1143.91 1538.33 1103.96 1551.55 1056.38 1550.96C1008.8 1550.36 953.622 1535.95 894.362 1509.28C775.843 1455.92 641.067 1353.55 518.145 1214.79C395.224 1076.02 307.464 927.181 264.931 798.727C243.665 734.498 233.713 675.391 236.311 625.202C238.908 575.016 254.05 533.78 282.939 505.227C311.828 476.674 351.786 463.451 399.364 464.044C446.947 464.637 502.12 479.048 561.381 505.724C679.9 559.076 814.676 661.449 937.597 800.212Z" stroke="#2E2E2E"/>
<path d="M940.79 803.885C1061.26 945.033 1146.44 1095.62 1186.79 1224.98C1206.96 1289.65 1215.92 1349 1212.49 1399.18C1209.06 1449.37 1193.25 1490.36 1163.92 1518.41C1134.59 1546.45 1094.47 1558.95 1046.95 1557.49C999.438 1556.02 944.57 1540.58 885.824 1512.79C768.334 1457.21 635.42 1352.26 514.952 1211.12C394.485 1069.97 309.303 919.376 268.956 790.023C248.782 725.346 239.825 666.003 243.254 615.817C246.682 565.634 262.491 524.64 291.82 496.593C321.148 468.546 361.277 456.046 408.789 457.515C456.304 458.983 511.172 474.422 569.918 502.212C687.408 557.792 820.322 662.737 940.79 803.885Z" stroke="#2E2E2E"/>
<path d="M943.918 807.619C1061.9 951.11 1144.47 1103.4 1182.62 1233.61C1201.7 1298.72 1209.66 1358.28 1205.4 1408.45C1201.14 1458.61 1184.67 1499.35 1154.91 1526.89C1125.15 1554.42 1084.86 1566.19 1037.43 1563.85C989.998 1561.5 935.452 1545.04 877.239 1516.15C760.813 1458.35 629.803 1350.87 511.825 1207.38C393.847 1063.89 311.27 911.597 273.121 781.386C254.046 716.28 246.086 656.718 250.345 606.55C254.603 556.385 271.074 515.646 300.833 488.113C330.592 460.581 370.88 448.809 418.311 451.153C465.745 453.496 520.29 469.958 578.504 498.854C694.93 556.645 825.94 664.128 943.918 807.619Z" stroke="#2E2E2E"/>
<path d="M946.98 811.414C1062.43 957.204 1142.38 1111.15 1178.32 1242.18C1196.29 1307.7 1203.25 1367.46 1198.16 1417.59C1193.08 1467.72 1175.95 1508.2 1145.77 1535.21C1115.59 1562.22 1075.15 1573.26 1027.82 1570.04C980.478 1566.82 926.271 1549.34 868.608 1519.35C753.282 1459.36 624.215 1349.37 508.763 1203.58C393.311 1057.79 313.364 903.847 277.425 772.817C259.455 707.302 252.494 647.541 257.581 597.406C262.668 547.275 279.796 506.802 309.976 479.793C340.157 452.783 380.592 441.742 427.927 444.96C475.265 448.178 529.472 465.658 587.135 495.651C702.461 555.635 831.528 665.625 946.98 811.414Z" stroke="#2E2E2E"/>
<path d="M949.975 815.27C1062.87 963.314 1140.16 1118.87 1173.88 1250.68C1190.74 1316.58 1196.7 1376.53 1190.78 1426.61C1184.87 1476.7 1167.09 1516.89 1136.5 1543.37C1105.9 1569.84 1065.33 1580.15 1018.11 1576.06C970.881 1571.97 917.03 1553.48 859.934 1522.4C745.743 1460.24 618.658 1347.77 505.767 1199.73C392.877 1051.69 315.584 896.129 281.865 764.321C265.005 698.417 259.046 638.474 264.96 588.388C270.874 538.305 288.654 498.111 319.247 471.633C349.84 445.155 390.409 434.847 437.634 438.939C484.862 443.031 538.713 461.524 595.809 492.604C710 554.764 837.085 667.226 949.975 815.27Z" stroke="#2E2E2E"/>
<path d="M952.903 819.184C1063.2 969.437 1137.81 1126.56 1169.3 1259.1C1185.04 1325.38 1190 1385.48 1183.26 1435.5C1176.52 1485.52 1158.1 1525.43 1127.1 1551.36C1096.1 1577.3 1055.41 1586.87 1008.31 1581.91C961.21 1576.94 907.73 1557.44 851.219 1525.29C738.198 1460.97 613.134 1346.07 502.839 1195.82C392.544 1045.56 317.929 888.445 286.441 755.899C270.697 689.625 265.741 629.519 272.48 579.496C279.219 529.478 297.646 489.575 328.642 463.637C359.638 437.698 400.329 428.127 447.429 433.092C494.532 438.056 548.012 457.556 604.523 489.714C717.544 554.03 842.608 668.931 952.903 819.184Z" stroke="#2E2E2E"/>
<path d="M955.762 823.155C1063.43 975.571 1135.34 1134.2 1164.59 1267.45C1179.21 1334.07 1183.17 1394.32 1175.6 1444.26C1168.04 1494.2 1148.97 1533.8 1117.58 1559.19C1086.19 1584.59 1045.39 1593.42 998.432 1587.58C951.468 1581.75 898.376 1561.25 842.467 1528.02C730.651 1461.57 607.647 1344.26 499.981 1191.84C392.315 1039.43 320.4 880.797 291.153 747.552C276.529 680.929 272.577 620.678 280.14 570.735C287.702 520.795 306.77 481.196 338.159 455.805C369.548 430.414 410.35 421.583 457.311 427.418C504.275 433.253 557.366 453.754 613.275 486.981C725.092 553.434 848.096 670.738 955.762 823.155Z" stroke="#2E2E2E"/>
<path d="M958.552 827.182C1063.56 981.716 1132.75 1141.81 1159.75 1275.71C1173.25 1342.67 1176.19 1403.04 1167.81 1452.89C1159.42 1502.74 1139.72 1542.02 1107.95 1566.86C1076.18 1591.69 1035.28 1599.78 988.469 1593.08C941.658 1586.37 888.971 1564.88 833.681 1530.59C723.102 1462.02 602.195 1342.35 497.191 1187.82C392.187 1033.28 322.995 873.187 295.997 739.285C282.498 672.333 279.552 611.955 287.936 562.107C296.319 512.261 316.021 472.978 347.794 448.142C379.567 423.306 420.467 415.217 467.274 421.921C514.085 428.626 566.772 450.122 622.062 484.407C732.64 552.976 853.548 672.648 958.552 827.182Z" stroke="#2E2E2E"/>
<path d="M961.271 831.264C1063.58 987.868 1130.03 1149.38 1154.77 1283.9C1167.14 1351.16 1169.08 1411.65 1159.88 1461.39C1150.68 1511.12 1130.34 1550.08 1098.2 1574.35C1066.05 1598.62 1025.07 1605.97 978.426 1598.4C931.782 1590.82 879.516 1568.34 824.862 1533.01C715.555 1462.34 596.782 1340.34 494.472 1183.74C392.162 1027.13 325.713 865.619 300.972 731.1C288.602 663.84 286.663 603.354 295.865 553.615C305.067 503.879 325.399 464.923 357.546 440.65C389.693 416.376 430.677 409.033 477.317 416.604C523.96 424.175 576.227 446.66 630.881 481.992C740.187 552.657 858.961 674.66 961.271 831.264Z" stroke="#2E2E2E"/>
<path d="M963.919 835.4C1063.5 994.026 1127.19 1156.91 1149.66 1292C1160.9 1359.55 1161.83 1420.13 1151.82 1469.74C1141.8 1519.35 1120.84 1557.97 1088.33 1581.67C1055.82 1605.37 1014.76 1611.97 968.306 1603.53C921.845 1595.1 870.015 1571.63 816.013 1535.26C708.012 1462.52 591.408 1338.23 491.824 1179.6C392.239 1020.97 328.554 858.094 306.078 722.999C294.84 655.451 293.909 594.875 303.927 545.26C313.944 495.649 334.898 457.033 367.41 433.33C399.921 409.626 440.978 403.03 487.436 411.465C533.898 419.902 585.728 443.368 639.729 479.738C747.731 552.476 864.334 676.774 963.919 835.4Z" stroke="#2E2E2E"/>
<path d="M966.496 839.588C1063.32 1000.19 1124.23 1164.39 1144.43 1300.01C1154.53 1367.83 1154.46 1428.48 1143.63 1477.95C1132.8 1527.42 1111.23 1565.69 1078.36 1588.81C1045.49 1611.94 1004.38 1617.79 958.114 1608.49C911.849 1599.19 860.471 1574.75 807.138 1537.36C700.475 1462.57 586.077 1336.01 489.248 1175.41C392.419 1014.81 331.516 850.613 311.313 714.984C301.211 647.169 301.288 586.521 312.118 537.046C322.947 487.575 344.518 449.31 377.384 426.184C410.25 403.057 451.367 397.21 497.629 406.508C543.895 415.807 595.273 440.247 648.605 477.643C755.268 552.433 869.666 678.987 966.496 839.588Z" stroke="#2E2E2E"/>
<path d="M968.999 843.827C1063.04 1006.35 1121.14 1171.82 1139.07 1307.94C1148.03 1376 1146.95 1436.7 1135.31 1486.02C1123.67 1535.34 1101.49 1573.24 1068.28 1595.78C1035.07 1618.33 993.904 1623.42 947.852 1613.26C901.796 1603.11 850.886 1577.7 798.239 1539.29C692.946 1462.47 580.788 1333.7 486.744 1171.17C392.7 1008.65 334.599 843.182 316.674 707.059C307.711 638.997 308.796 578.296 320.435 528.977C332.073 479.66 354.254 441.758 387.465 419.216C420.675 396.674 461.839 391.578 507.891 401.735C553.947 411.893 604.857 437.3 657.504 475.711C762.797 552.53 874.955 681.302 968.999 843.827Z" stroke="#2E2E2E"/>
<path d="M971.429 848.116C1062.66 1012.52 1117.94 1179.2 1133.58 1315.77C1141.4 1384.06 1139.31 1444.8 1126.87 1493.95C1114.42 1543.09 1091.64 1580.62 1058.09 1602.57C1024.55 1624.52 983.351 1628.87 937.522 1617.85C891.691 1606.84 841.263 1580.47 789.318 1541.06C685.428 1462.23 575.545 1331.28 484.314 1166.88C393.083 1002.48 337.802 835.799 322.16 699.225C314.339 630.937 316.431 570.202 328.876 521.052C341.32 471.905 364.105 434.378 397.649 412.427C431.193 390.475 472.392 386.132 518.221 397.145C564.052 408.159 614.48 434.526 666.425 473.94C770.315 552.765 880.198 683.715 971.429 848.116Z" stroke="#2E2E2E"/>
<path d="M973.785 852.454C1062.17 1018.68 1114.62 1186.53 1127.97 1323.51C1134.65 1392.01 1131.55 1452.76 1118.3 1501.72C1105.06 1550.68 1081.68 1587.83 1047.81 1609.18C1013.94 1630.53 972.72 1634.12 927.129 1622.26C881.536 1610.39 831.607 1583.07 780.378 1542.67C677.923 1461.86 570.348 1328.77 481.958 1162.54C393.569 996.318 341.124 828.47 327.771 691.485C321.094 622.992 324.193 562.241 337.439 513.275C350.685 464.313 374.066 427.172 407.934 405.819C441.803 384.465 483.024 380.876 528.615 392.742C574.208 404.609 624.137 431.927 675.365 472.331C777.82 553.138 885.396 686.227 973.785 852.454Z" stroke="#2E2E2E"/>
<path d="M976.066 856.84C1061.59 1024.84 1111.18 1193.8 1122.24 1331.16C1127.77 1399.84 1123.67 1460.58 1109.62 1509.35C1095.58 1558.11 1071.61 1594.86 1037.43 1615.6C1003.24 1636.35 962.013 1639.19 916.674 1626.47C871.333 1613.76 821.918 1585.5 771.422 1544.11C670.433 1461.35 565.198 1326.16 479.677 1158.16C394.156 990.159 344.563 821.195 333.502 683.842C327.972 615.165 332.076 554.416 346.121 505.651C360.164 456.888 384.134 420.145 418.316 399.395C452.498 378.646 493.729 375.811 539.068 388.527C584.41 401.243 633.825 429.504 684.32 470.887C785.31 553.651 890.545 688.838 976.066 856.84Z" stroke="#2E2E2E"/>
<path d="M978.271 861.271C1060.9 1031 1107.62 1201.02 1116.39 1338.7C1120.77 1407.54 1115.66 1468.27 1100.82 1516.82C1085.99 1565.37 1061.43 1601.71 1026.95 1621.84C992.464 1641.98 951.236 1644.06 906.163 1630.5C861.087 1616.94 812.201 1587.74 762.453 1545.4C662.96 1460.7 560.098 1323.45 477.472 1153.73C394.845 984.005 348.12 813.977 339.354 676.297C334.972 607.456 340.081 546.729 354.919 498.178C369.756 449.63 394.308 413.295 428.793 393.156C463.278 373.017 504.506 370.938 549.58 384.499C594.655 398.061 643.542 427.256 693.289 469.605C792.782 554.301 895.644 691.545 978.271 861.271Z" stroke="#2E2E2E"/>
<path d="M980.4 865.746C1060.11 1037.14 1103.95 1208.18 1110.42 1346.15C1113.65 1415.13 1107.54 1475.82 1091.91 1524.14C1076.29 1572.46 1051.16 1608.37 1016.38 1627.9C981.604 1647.42 940.391 1648.74 895.597 1634.34C850.8 1619.94 802.458 1589.82 753.474 1546.51C655.508 1459.91 555.049 1320.65 475.342 1149.25C395.636 977.857 351.792 806.818 345.325 668.853C342.092 599.87 348.204 539.182 363.831 490.86C379.457 442.542 404.583 406.626 439.361 387.104C474.139 367.582 515.352 366.259 560.145 380.661C604.942 395.064 653.284 425.185 702.268 468.487C800.235 555.089 900.693 694.349 980.4 865.746Z" stroke="#2E2E2E"/>
<path d="M982.452 870.264C1059.22 1043.28 1100.16 1215.28 1104.33 1353.49C1106.41 1422.59 1099.3 1483.22 1082.89 1531.3C1066.48 1579.37 1040.79 1614.86 1005.73 1633.76C970.666 1652.66 929.481 1653.22 884.98 1637.99C840.477 1622.75 792.693 1591.71 744.487 1547.47C648.078 1458.98 550.054 1317.75 473.291 1144.74C396.528 971.718 355.579 799.719 351.413 661.512C349.33 592.407 356.443 531.777 372.854 483.7C389.265 435.625 414.957 400.14 450.017 381.24C485.077 362.341 526.262 361.775 570.763 377.014C615.266 392.254 663.05 423.291 711.256 467.533C807.666 556.015 905.689 697.247 982.452 870.264Z" stroke="#2E2E2E"/>
<path d="M984.426 874.826C1058.22 1049.41 1096.26 1222.32 1098.13 1360.72C1099.06 1429.93 1090.95 1490.48 1073.76 1538.3C1056.57 1586.12 1030.32 1621.16 994.985 1639.43C959.654 1657.7 918.509 1657.51 874.315 1641.44C830.118 1625.37 782.907 1593.43 735.495 1548.26C640.671 1457.92 545.112 1314.76 471.316 1140.18C397.52 965.592 359.479 792.685 357.614 654.277C356.682 585.072 364.794 524.518 381.985 476.7C399.175 428.885 425.426 393.84 460.757 375.569C496.088 357.298 537.233 357.489 581.427 373.56C625.624 389.633 672.835 421.576 720.247 466.744C815.071 557.079 910.631 700.241 984.426 874.826Z" stroke="#2E2E2E"/>
<path d="M986.323 879.426C1057.13 1055.52 1092.25 1229.29 1091.81 1367.85C1091.59 1437.14 1082.49 1497.6 1064.52 1545.14C1046.56 1592.68 1019.76 1627.27 984.164 1644.91C948.572 1662.55 907.48 1661.6 863.606 1644.7C819.729 1627.8 773.105 1594.96 726.5 1548.88C633.291 1456.72 540.226 1311.67 469.42 1135.58C398.613 959.477 363.491 785.715 363.929 647.149C364.148 577.864 373.257 517.405 391.222 469.861C409.185 422.318 435.987 387.726 471.579 370.089C507.171 352.451 548.263 353.399 592.137 370.298C636.013 387.198 682.637 420.038 729.242 466.119C822.451 558.279 915.517 703.328 986.323 879.426Z" stroke="#2E2E2E"/>
<path d="M988.14 884.065C1055.94 1061.62 1088.13 1236.19 1085.39 1374.87C1084.02 1444.21 1073.91 1504.56 1055.18 1551.82C1036.45 1599.07 1009.11 1633.2 973.264 1650.2C937.422 1667.2 896.396 1665.49 852.855 1647.77C809.311 1630.05 763.29 1596.32 717.506 1549.34C625.94 1455.38 535.397 1308.49 467.602 1130.94C399.807 953.377 367.614 778.813 370.354 640.13C371.724 570.788 381.828 510.442 400.561 463.185C419.293 415.931 446.637 381.801 482.479 364.803C518.32 347.805 559.347 349.509 602.888 367.23C646.431 384.952 692.453 418.68 738.236 465.659C829.802 559.617 920.346 706.507 988.14 884.065Z" stroke="#2E2E2E"/>
<path d="M989.879 888.743C1054.64 1067.71 1083.89 1243.02 1078.85 1381.78C1076.33 1451.16 1065.24 1511.37 1045.74 1558.32C1026.25 1605.28 998.369 1638.93 962.289 1655.29C926.208 1671.64 885.26 1669.18 842.066 1650.64C798.869 1632.1 753.463 1597.5 708.515 1549.64C618.62 1453.91 530.626 1305.22 465.864 1126.26C401.101 947.293 371.848 771.981 376.889 633.224C379.41 563.845 390.503 503.631 409.999 456.676C429.494 409.724 457.373 376.067 493.453 359.713C529.534 343.359 570.482 345.819 613.676 364.357C656.873 382.896 702.279 417.501 747.227 465.365C837.122 561.09 925.116 709.778 989.879 888.743Z" stroke="#2E2E2E"/>
<path d="M991.537 893.456C1053.25 1073.77 1079.55 1249.78 1072.21 1388.57C1068.54 1457.96 1056.46 1518.03 1036.21 1564.67C1015.96 1611.3 987.551 1644.48 951.243 1660.18C914.934 1675.88 874.077 1672.67 831.242 1653.32C788.406 1633.97 743.629 1598.5 699.53 1549.77C611.334 1452.3 525.916 1301.86 464.205 1121.54C402.494 941.228 376.189 765.22 383.53 626.432C387.201 557.036 399.282 496.972 419.535 450.334C439.787 403.698 468.191 370.525 504.5 354.82C540.808 339.116 581.666 342.331 624.5 361.68C667.337 381.03 712.114 416.501 756.212 465.235C844.409 562.7 929.826 713.14 991.537 893.456Z" stroke="#2E2E2E"/>
<path d="M993.115 898.204C1051.76 1079.82 1075.1 1256.47 1065.47 1395.24C1060.65 1464.64 1047.58 1524.53 1026.58 1570.84C1005.57 1617.14 976.653 1649.82 940.128 1664.87C903.603 1679.92 862.848 1675.95 820.387 1655.8C777.923 1635.65 733.79 1599.32 690.553 1549.73C604.083 1450.56 521.267 1298.41 462.627 1116.8C403.986 935.183 380.638 758.534 390.277 619.756C395.096 550.365 408.161 490.47 429.165 444.162C450.168 397.857 479.089 365.177 515.614 350.126C552.139 335.076 592.894 339.046 635.355 359.2C677.819 379.355 721.953 415.682 765.189 465.27C851.66 564.445 934.475 716.591 993.115 898.204Z" stroke="#2E2E2E"/>
<path d="M994.613 902.986C1050.16 1085.84 1070.55 1263.08 1058.62 1401.8C1052.65 1471.17 1038.6 1530.88 1016.86 1576.84C995.11 1622.8 965.68 1654.98 928.95 1669.37C892.219 1683.76 851.579 1679.04 809.503 1658.08C767.426 1637.13 723.949 1599.96 681.588 1549.53C596.869 1448.68 516.682 1294.87 461.13 1112.01C405.577 929.16 385.193 751.923 397.126 613.198C403.093 543.834 417.138 484.125 438.886 438.162C460.633 392.202 490.062 360.025 526.793 345.633C563.523 331.241 604.163 335.964 646.239 356.917C688.317 377.872 731.794 415.042 774.154 465.471C858.873 566.326 939.061 720.131 994.613 902.986Z" stroke="#2E2E2E"/>
<path d="M996.029 907.799C1048.48 1091.84 1065.89 1269.61 1051.67 1408.24C1044.55 1477.56 1029.53 1537.06 1007.05 1582.67C984.563 1628.27 954.635 1659.93 917.71 1673.66C880.785 1687.39 840.272 1681.91 798.595 1660.17C756.916 1638.42 714.109 1600.42 672.637 1549.16C589.696 1446.66 512.16 1291.24 459.714 1107.2C407.267 923.161 389.852 745.39 404.076 606.76C411.189 537.444 426.209 477.939 448.695 432.336C471.179 386.734 501.108 355.07 538.033 341.341C574.958 327.612 615.47 333.086 657.147 354.833C698.826 376.58 741.634 414.584 783.105 465.837C866.047 568.34 943.582 723.759 996.029 907.799Z" stroke="#2E2E2E"/>
<path d="M997.364 912.642C1046.69 1097.81 1061.13 1276.06 1044.62 1414.56C1036.36 1483.8 1020.37 1543.09 997.154 1588.32C973.939 1633.55 943.52 1664.69 906.412 1677.75C869.304 1690.81 828.931 1684.59 787.666 1662.05C746.398 1639.52 704.273 1600.69 663.703 1548.63C582.565 1444.51 507.705 1287.53 458.379 1102.36C409.054 917.187 394.614 738.936 411.125 600.443C419.381 531.196 435.372 471.914 458.589 426.683C481.804 381.454 512.223 350.313 549.331 337.251C586.439 324.189 626.812 330.414 668.077 352.946C709.345 375.479 751.47 414.305 792.04 466.366C873.178 570.488 948.038 727.472 997.364 912.642Z" stroke="#2E2E2E"/>
<path d="M998.616 917.515C1044.8 1103.76 1056.27 1282.44 1037.47 1420.75C1028.08 1489.91 1011.12 1548.95 987.178 1593.79C963.239 1638.63 932.339 1669.24 895.059 1681.63C857.779 1694.02 817.559 1687.05 776.717 1663.74C735.873 1640.43 694.445 1600.79 654.788 1547.94C575.477 1442.23 503.316 1283.73 457.127 1097.49C410.938 911.242 399.477 732.566 418.27 594.252C427.667 525.094 444.624 466.054 468.564 421.209C492.504 376.367 523.403 345.757 560.683 333.367C597.963 320.976 638.183 327.948 679.025 351.26C719.869 374.573 761.298 414.208 800.954 467.062C880.265 572.77 952.427 731.272 998.616 917.515Z" stroke="#2E2E2E"/>
<path d="M999.786 922.414C1042.82 1109.67 1051.3 1288.72 1030.23 1426.81C1019.7 1495.86 1001.78 1554.64 977.123 1599.09C952.467 1643.53 921.096 1673.6 883.656 1685.31C846.215 1697.03 806.16 1689.31 765.754 1665.23C725.347 1641.14 684.626 1600.71 645.896 1547.08C568.436 1439.82 498.996 1279.85 455.957 1092.59C412.918 905.325 404.441 726.278 425.51 588.186C436.045 519.139 453.962 460.357 478.619 415.913C503.275 371.47 534.646 341.402 572.087 329.687C609.527 317.971 649.583 325.689 689.988 349.773C730.396 373.858 771.116 414.29 809.847 467.922C887.306 575.183 956.747 735.154 999.786 922.414Z" stroke="#2E2E2E"/>
<path d="M1000.87 927.341C1040.75 1115.56 1046.24 1294.92 1022.9 1432.75C1011.23 1501.67 992.358 1560.17 966.992 1604.2C941.627 1648.23 909.794 1677.75 872.205 1688.79C834.615 1699.82 794.736 1691.36 754.779 1666.51C714.821 1641.66 674.821 1600.45 637.028 1546.05C561.444 1437.27 494.745 1275.88 454.87 1087.66C414.995 899.44 409.503 720.076 432.841 582.248C444.511 513.333 463.384 454.828 488.75 410.797C514.115 366.769 545.948 337.251 583.537 326.214C621.127 315.177 661.006 323.638 700.963 348.487C740.921 373.337 780.921 414.555 818.714 468.947C894.298 577.729 960.997 739.121 1000.87 927.341Z" stroke="#2E2E2E"/>
<path d="M1001.88 932.291C1038.58 1121.41 1041.08 1301.04 1015.48 1438.56C1002.68 1507.32 982.856 1565.53 956.788 1609.14C930.722 1652.74 898.437 1681.7 860.71 1692.05C822.983 1702.41 783.293 1693.21 743.797 1667.6C704.299 1641.99 665.032 1600 628.188 1544.87C554.502 1434.6 490.565 1271.83 453.866 1082.71C417.166 893.588 414.662 713.962 440.263 576.44C453.064 507.677 472.887 449.467 498.954 405.864C525.02 362.262 557.305 333.304 595.032 322.948C632.759 312.593 672.449 321.795 711.946 347.401C751.443 373.008 790.71 414.999 827.554 470.135C901.24 580.405 965.177 743.169 1001.88 932.291Z" stroke="#2E2E2E"/>
<path d="M1002.8 937.264C1036.31 1127.23 1035.83 1307.06 1007.97 1444.24C994.042 1512.83 973.276 1570.72 946.515 1613.89C919.755 1657.05 887.028 1685.44 849.175 1695.11C811.322 1704.78 771.833 1694.84 732.809 1668.48C693.784 1642.13 655.262 1599.38 619.379 1543.51C547.614 1431.79 486.458 1267.7 452.946 1077.74C419.433 887.77 419.917 707.937 447.772 570.762C461.701 502.173 482.467 444.276 509.228 401.113C535.987 357.951 568.715 329.562 606.568 319.891C644.421 310.221 683.91 320.161 722.933 346.516C761.958 372.873 800.48 415.624 836.364 471.487C908.129 583.211 969.284 747.297 1002.8 937.264Z" stroke="#2E2E2E"/>
<path d="M1003.63 942.258C1033.95 1133.01 1030.48 1313 1000.38 1449.78C985.324 1518.18 963.62 1575.74 936.174 1618.45C908.73 1661.16 875.57 1688.97 837.602 1697.96C799.635 1706.94 760.358 1696.26 721.82 1669.17C683.28 1642.07 645.514 1598.57 610.602 1542C540.78 1428.85 482.424 1263.5 452.109 1072.74C421.793 881.989 425.265 702.004 455.367 565.218C470.418 496.824 492.122 439.257 519.568 396.547C547.013 353.839 580.172 326.026 618.14 317.044C656.108 308.061 695.384 318.736 733.923 345.833C772.463 372.931 810.228 416.429 845.14 473.002C914.962 586.147 973.318 751.505 1003.63 942.258Z" stroke="#2E2E2E"/>
<path d="M1004.39 947.272C1031.5 1138.75 1025.04 1318.84 992.698 1455.19C976.528 1523.37 953.894 1580.59 925.771 1622.83C897.649 1665.08 864.067 1692.3 825.997 1700.59C787.926 1708.89 748.875 1697.48 710.832 1669.65C672.789 1641.82 635.791 1597.59 601.862 1540.32C534.003 1425.79 478.466 1259.21 451.356 1067.73C424.247 876.246 430.705 696.163 463.045 559.809C479.215 491.63 501.849 434.41 529.972 392.167C558.093 349.926 591.675 322.698 629.746 314.406C667.816 306.114 706.868 317.521 744.91 345.351C782.954 373.182 819.951 417.414 853.881 474.68C921.739 589.211 977.277 755.791 1004.39 947.272Z" stroke="#2E2E2E"/>
<path d="M1005.05 952.305C1028.95 1144.46 1019.51 1324.58 984.939 1460.47C967.656 1528.41 944.098 1585.26 915.307 1627.03C886.517 1668.79 852.523 1695.42 814.361 1703.02C776.199 1710.62 737.384 1698.48 699.85 1669.93C662.315 1641.37 626.097 1596.42 593.159 1538.48C527.285 1422.6 474.583 1254.85 450.688 1062.7C426.793 870.543 436.236 690.418 470.803 554.536C488.086 486.593 511.644 429.738 540.436 387.975C569.226 346.213 603.219 319.579 641.381 311.98C679.543 304.381 718.358 316.516 755.892 345.071C793.428 373.627 829.646 418.579 862.583 476.521C928.457 592.402 981.16 760.153 1005.05 952.305Z" stroke="#2E2E2E"/>
<path d="M1005.64 957.354C1026.31 1150.12 1013.89 1330.23 977.103 1465.6C958.711 1533.29 934.236 1589.76 904.786 1631.03C875.336 1672.3 840.941 1698.33 802.699 1705.23C764.457 1712.14 725.891 1699.28 688.876 1670.01C651.86 1640.74 616.433 1595.08 584.498 1536.48C520.628 1419.28 470.777 1250.41 450.104 1057.65C429.431 864.882 441.856 684.769 478.64 549.4C497.032 481.715 521.506 425.242 550.957 383.971C580.406 342.701 614.801 316.669 653.043 309.765C691.285 302.862 729.851 315.721 766.866 344.992C803.882 374.264 839.31 419.923 871.245 478.522C935.114 595.72 984.966 764.59 1005.64 957.354Z" stroke="#2E2E2E"/>
<path d="M1006.14 962.419C1023.58 1155.74 1008.18 1335.78 969.19 1470.6C949.696 1538 924.312 1594.08 894.211 1634.84C864.111 1675.61 829.324 1701.03 791.014 1707.24C752.704 1713.44 714.398 1699.86 677.914 1669.88C641.429 1639.91 606.803 1593.55 575.88 1534.31C514.035 1415.84 467.049 1245.9 449.605 1052.58C432.16 859.264 447.564 679.218 486.552 544.405C506.047 476.997 531.431 420.924 561.532 380.157C591.632 339.392 626.418 313.97 664.728 307.764C703.038 301.557 741.344 315.137 777.828 345.116C814.313 375.095 848.939 421.446 879.863 480.686C941.708 599.163 988.693 769.102 1006.14 962.419Z" stroke="#2E2E2E"/>
<path d="M1006.55 967.497C1020.76 1161.31 1002.39 1341.23 961.204 1475.45C940.613 1542.56 914.328 1598.22 883.585 1638.47C852.844 1678.71 817.677 1703.52 779.31 1709.03C740.944 1714.53 702.91 1700.24 666.968 1669.56C631.025 1638.88 597.21 1591.85 567.308 1531.99C507.506 1412.27 463.401 1241.31 449.19 1047.5C434.979 853.692 453.356 673.767 494.538 539.551C515.13 472.441 541.415 416.784 572.157 376.535C602.899 336.287 638.066 311.482 676.432 305.975C714.799 300.468 752.833 314.765 788.775 345.441C824.718 376.118 858.532 423.147 888.434 483.009C948.236 602.73 992.341 773.686 1006.55 967.497Z" stroke="#2E2E2E"/>
<path d="M1006.88 972.588C1017.86 1166.83 996.51 1346.58 953.147 1480.16C931.465 1546.95 904.286 1602.18 872.912 1641.9C841.538 1681.61 806.002 1705.79 767.59 1710.6C729.179 1715.41 691.428 1700.4 656.039 1669.03C620.649 1637.67 587.657 1589.97 558.785 1529.51C501.045 1408.58 459.833 1236.66 448.86 1042.41C437.887 848.167 459.232 668.419 502.595 534.839C524.277 468.048 551.456 412.825 582.83 373.105C614.204 333.386 649.741 309.207 688.152 304.401C726.563 299.594 764.314 314.603 799.703 345.968C835.093 377.334 868.085 425.028 896.957 485.493C954.697 606.422 995.909 778.342 1006.88 972.588Z" stroke="#2E2E2E"/>
<path d="M1007.13 977.688C1014.86 1172.31 990.553 1351.83 945.021 1484.73C922.255 1551.18 894.192 1605.95 862.195 1645.13C830.199 1684.31 794.303 1707.86 755.859 1711.96C717.414 1716.06 679.959 1700.35 645.133 1668.3C610.307 1636.26 578.146 1587.92 550.315 1526.86C494.653 1404.77 456.348 1231.93 448.616 1037.31C440.884 842.689 465.19 663.172 510.721 530.271C533.488 463.818 561.551 409.046 593.548 369.867C625.544 330.69 661.44 307.143 699.884 303.039C738.329 298.935 775.784 314.651 810.61 346.695C845.436 378.74 877.597 427.083 905.428 488.134C961.09 610.233 999.395 783.066 1007.13 977.688Z" stroke="#2E2E2E"/>
<path d="M1007.29 982.798C1011.78 1177.74 984.515 1356.97 936.83 1489.15C912.986 1555.24 884.046 1609.55 851.437 1648.17C818.828 1686.8 782.584 1709.71 744.118 1713.11C705.652 1716.51 668.503 1700.09 634.252 1667.37C600 1634.66 568.681 1585.68 541.898 1524.06C488.331 1400.83 452.945 1227.14 448.456 1032.2C443.968 837.262 471.228 658.032 518.913 525.848C542.757 459.755 571.697 405.45 604.307 366.825C636.915 328.201 673.159 305.293 711.625 301.893C750.091 298.492 787.24 314.911 821.491 347.625C855.743 380.339 887.062 429.317 913.845 490.935C967.412 614.167 1002.8 787.859 1007.29 982.798Z" stroke="#2E2E2E"/>
<path d="M1007.36 987.917C1008.6 1183.11 978.398 1362 928.574 1493.43C903.661 1559.14 873.853 1612.96 840.64 1651.02C807.429 1689.08 770.848 1711.34 732.373 1714.04C693.897 1716.73 657.066 1699.62 623.399 1666.24C589.732 1632.87 559.265 1583.27 533.537 1521.11C482.083 1396.78 449.625 1222.28 448.381 1027.08C447.138 831.888 477.344 652.998 527.169 521.574C552.082 455.86 581.89 402.038 615.102 363.978C648.314 325.919 684.894 303.658 723.37 300.962C761.846 298.266 798.677 315.383 832.343 348.756C866.011 382.13 896.478 431.728 922.206 493.894C973.66 618.222 1006.12 792.72 1007.36 987.917Z" stroke="#2E2E2E"/>
<path d="M1007.35 993.04C1005.35 1188.43 972.206 1366.93 920.257 1497.55C894.282 1562.87 863.615 1616.19 829.81 1653.67C796.006 1691.16 759.1 1712.76 720.626 1714.75C682.152 1716.74 645.65 1698.93 612.578 1664.91C579.506 1630.89 549.899 1580.69 525.236 1517.99C475.909 1392.61 446.39 1217.35 448.392 1021.96C450.394 826.566 483.537 648.072 535.486 517.445C561.461 452.131 592.128 398.809 625.933 361.326C659.737 323.844 696.643 302.236 735.117 300.246C773.59 298.255 810.093 316.065 843.165 350.087C876.237 384.109 905.843 434.313 930.507 497.007C979.834 622.393 1009.35 797.646 1007.35 993.04Z" stroke="#2E2E2E"/>
<path d="M1007.26 998.168C1002.01 1193.7 965.939 1371.74 911.882 1501.53C884.852 1566.43 853.336 1619.23 818.949 1656.13C784.562 1693.02 747.341 1713.97 708.881 1715.25C670.422 1716.54 634.259 1698.04 601.792 1663.38C569.325 1628.72 540.588 1577.93 516.996 1514.72C469.813 1388.32 443.241 1212.36 448.488 1016.83C453.734 821.3 489.804 643.255 543.861 513.467C570.891 448.572 602.407 395.766 636.794 358.872C671.181 321.978 708.402 301.03 746.861 299.745C785.321 298.461 821.484 316.957 853.951 351.618C886.418 386.28 915.155 437.072 938.747 500.277C985.93 626.683 1012.5 802.635 1007.26 998.168Z" stroke="#2E2E2E"/>
<path d="M1007.07 1003.3C998.585 1198.91 959.6 1376.45 903.45 1505.36C875.375 1569.82 843.019 1622.09 808.059 1658.39C773.101 1694.68 735.577 1714.96 697.142 1715.54C658.708 1716.12 622.896 1696.94 591.045 1661.65C559.192 1626.36 531.334 1574.99 508.82 1511.3C463.794 1383.91 440.179 1207.31 448.668 1011.7C457.158 816.09 496.143 638.55 552.292 509.64C580.368 445.183 612.724 392.91 647.683 356.615C682.642 320.321 720.166 300.039 758.6 299.461C797.035 298.882 832.846 318.06 864.698 353.35C896.55 388.64 924.408 440.006 946.922 503.702C991.948 631.089 1015.56 807.688 1007.07 1003.3Z" stroke="#2E2E2E"/>
<path d="M1006.81 1008.43C995.079 1204.06 953.19 1381.04 894.965 1509.04C865.852 1573.03 832.667 1624.76 797.146 1660.44C761.626 1696.13 723.81 1715.74 685.413 1715.61C647.016 1715.48 611.566 1695.63 580.339 1659.72C549.111 1623.81 522.14 1571.89 500.712 1507.72C457.856 1379.39 437.204 1202.2 448.934 1006.57C460.664 810.939 502.553 633.956 560.777 505.964C589.89 441.966 623.076 390.241 658.597 354.556C694.116 318.872 731.932 299.263 770.33 299.391C808.727 299.519 844.177 319.373 875.404 355.28C906.632 391.187 933.603 443.113 955.031 507.279C997.886 635.609 1018.54 812.8 1006.81 1008.43Z" stroke="#2E2E2E"/>
<path d="M1006.46 1013.56C991.491 1209.15 946.711 1385.52 886.429 1512.56C856.287 1576.08 822.282 1627.24 786.211 1662.3C750.141 1697.37 712.045 1716.3 673.696 1715.46C635.347 1714.63 600.27 1694.11 569.677 1657.59C539.083 1621.08 513.008 1568.61 492.672 1503.99C452 1374.76 434.317 1197.03 449.284 1001.44C464.251 805.849 509.031 629.478 569.313 502.442C599.454 438.922 633.46 387.762 669.531 352.698C705.601 317.636 743.697 298.705 782.046 299.539C820.394 300.374 855.471 320.897 886.064 357.41C916.658 393.924 942.734 446.392 963.07 511.011C1003.74 640.244 1021.42 817.974 1006.46 1013.56Z" stroke="#2E2E2E"/>
<path d="M1006.02 1018.69C987.823 1214.18 940.166 1389.89 877.845 1515.93C846.684 1578.95 811.869 1629.53 775.259 1663.96C738.649 1698.39 700.285 1716.64 661.996 1715.1C623.708 1713.56 589.014 1692.37 559.065 1655.26C529.115 1618.15 503.942 1565.16 484.704 1500.11C446.229 1370.01 431.521 1191.8 449.72 996.308C467.919 800.818 515.576 625.113 577.897 499.072C609.058 436.05 643.873 385.469 680.484 351.037C717.093 316.607 755.458 298.36 793.746 299.9C832.034 301.441 866.728 322.628 896.678 359.737C926.628 396.846 951.801 449.841 971.038 514.891C1009.51 644.988 1024.22 823.203 1006.02 1018.69Z" stroke="#2E2E2E"/>
<path d="M1005.5 1023.82C984.076 1219.15 933.556 1394.14 869.216 1519.14C837.044 1581.65 801.431 1631.64 764.292 1665.42C727.154 1699.21 688.532 1716.77 650.316 1714.52C612.1 1712.28 577.8 1690.43 548.503 1652.74C519.205 1615.05 494.944 1561.54 476.81 1496.08C440.543 1365.16 428.814 1186.51 450.24 991.182C471.666 795.852 522.186 620.866 586.526 495.858C618.698 433.352 654.311 383.367 691.45 349.578C728.588 315.79 767.21 298.232 805.426 300.479C843.642 302.725 877.942 324.568 907.239 362.262C936.537 399.955 960.798 453.461 978.932 518.923C1015.2 649.845 1026.93 828.49 1005.5 1023.82Z" stroke="#2E2E2E"/>
<path d="M1004.9 1028.94C980.251 1224.05 926.884 1398.27 860.543 1522.2C827.372 1584.17 790.97 1633.55 753.314 1666.68C715.659 1699.82 676.792 1716.68 638.66 1713.73C600.527 1710.78 566.632 1688.28 537.996 1650.02C509.36 1611.75 486.017 1557.75 468.993 1491.9C434.945 1360.19 426.199 1181.17 450.845 986.06C475.492 790.949 528.859 616.735 595.2 492.799C628.371 430.829 664.773 381.453 702.428 348.318C740.083 315.182 778.95 298.32 817.083 301.271C855.215 304.223 889.111 326.716 917.746 364.982C946.382 403.248 969.726 457.248 986.75 523.103C1020.8 654.809 1029.54 833.83 1004.9 1028.94Z" stroke="#2E2E2E"/>
<path d="M1004.21 1034.06C976.348 1228.89 920.15 1402.28 851.829 1525.1C817.668 1586.52 780.489 1635.27 742.328 1667.74C704.168 1700.21 665.067 1716.38 627.03 1712.72C588.993 1709.07 555.512 1685.93 527.547 1647.1C499.581 1608.27 477.163 1553.8 461.254 1487.57C429.435 1355.12 423.675 1175.78 451.534 980.946C479.393 786.113 535.592 612.725 603.912 489.898C638.074 428.483 675.252 379.732 713.414 347.259C751.574 314.787 790.674 298.625 828.712 302.28C866.749 305.935 900.23 329.072 928.195 367.899C956.161 406.727 978.579 461.204 994.488 527.431C1026.31 659.881 1032.07 839.224 1004.21 1034.06Z" stroke="#2E2E2E"/>
<path d="M1003.43 1039.16C972.371 1233.66 913.359 1406.17 843.079 1527.85C807.938 1588.69 769.993 1636.8 731.338 1668.6C692.684 1700.4 653.362 1715.86 615.432 1711.5C577.501 1707.14 544.446 1683.37 517.159 1643.99C489.872 1604.61 468.386 1549.68 453.596 1483.1C424.017 1349.94 421.244 1170.33 452.307 975.839C483.371 781.344 542.383 608.834 612.663 487.154C647.804 426.312 685.749 378.202 724.404 346.402C763.058 314.602 802.38 299.145 840.31 303.503C878.241 307.861 911.297 331.635 938.583 371.011C965.87 410.387 987.356 465.326 1002.15 531.905C1031.73 665.059 1034.5 844.668 1003.43 1039.16Z" stroke="#2E2E2E"/>
<path d="M1002.58 1044.26C968.319 1238.36 906.511 1409.94 834.293 1530.43C798.183 1590.68 759.484 1638.14 720.347 1669.26C681.211 1700.37 641.679 1715.12 603.867 1710.06C566.056 1705 533.434 1680.6 506.835 1640.68C480.235 1600.77 459.688 1545.39 446.022 1478.48C418.691 1344.66 418.906 1164.84 453.165 970.741C487.423 776.644 549.231 605.065 621.449 484.568C657.559 424.318 696.258 376.863 735.395 345.745C774.531 314.628 814.063 299.881 851.875 304.94C889.687 310 922.308 334.403 948.907 374.316C975.507 414.23 996.054 469.613 1009.72 536.524C1037.05 670.341 1036.84 850.162 1002.58 1044.26Z" stroke="#2E2E2E"/>
<path d="M1001.64 1049.35C964.194 1242.99 899.608 1413.58 825.474 1532.86C788.407 1592.5 748.966 1639.28 709.359 1669.71C669.752 1700.14 630.023 1714.17 592.341 1708.41C554.659 1702.65 522.483 1677.63 496.578 1637.19C470.673 1596.75 451.071 1540.94 438.534 1473.72C413.46 1339.27 416.663 1159.3 454.106 965.655C491.549 772.014 556.134 601.418 630.268 482.142C667.336 422.502 706.776 375.716 746.384 345.291C785.991 314.866 825.719 300.832 863.401 306.592C901.083 312.352 933.26 337.376 959.164 377.814C985.069 418.253 1004.67 474.064 1017.21 541.286C1042.28 675.726 1039.08 855.704 1001.64 1049.35Z" stroke="#2E2E2E"/>
<path d="M1000.61 1054.42C959.996 1247.54 892.653 1417.11 816.626 1535.13C778.612 1594.14 738.441 1640.24 698.375 1669.96C658.31 1699.69 618.396 1713 580.856 1706.54C543.315 1700.09 511.593 1674.45 486.392 1633.5C461.19 1592.55 442.539 1536.32 431.134 1468.81C408.324 1333.79 414.514 1153.71 455.13 960.582C495.746 767.457 563.089 597.896 639.116 479.876C677.13 420.865 717.301 374.762 757.367 345.038C797.432 315.314 837.346 301.999 874.886 308.457C912.427 314.915 944.149 340.553 969.35 381.505C994.552 422.456 1013.2 478.678 1024.61 546.191C1047.42 681.213 1041.23 861.293 1000.61 1054.42Z" stroke="#2E2E2E"/>
<path d="M999.505 1059.48C955.728 1252.03 885.648 1420.5 807.751 1537.23C768.802 1595.6 727.913 1641 687.401 1670.01C646.891 1699.03 606.803 1711.62 569.415 1704.47C532.027 1697.31 500.77 1671.07 476.279 1629.62C451.788 1588.16 434.094 1531.55 423.824 1463.77C403.285 1328.2 412.46 1148.07 456.237 955.523C500.014 762.971 570.094 594.498 647.991 477.771C686.941 419.406 727.829 374.001 768.341 344.987C808.852 315.973 848.939 303.381 886.327 310.535C923.715 317.689 954.973 343.934 979.463 385.385C1003.95 426.837 1021.65 483.452 1031.92 551.235C1052.46 686.798 1043.28 866.926 999.505 1059.48Z" stroke="#2E2E2E"/>
<path d="M998.315 1064.52C951.391 1256.44 878.596 1423.77 798.852 1539.17C758.979 1596.87 717.385 1641.57 676.44 1669.86C635.495 1698.16 595.247 1710.02 558.023 1702.17C520.799 1694.33 490.016 1667.48 466.243 1625.54C442.471 1583.6 425.738 1526.61 416.607 1458.58C398.346 1322.52 410.503 1142.4 457.428 950.479C504.352 758.56 577.147 591.225 656.891 475.826C696.764 418.125 738.358 373.432 779.303 345.137C820.247 316.843 860.496 304.976 897.72 312.825C934.944 320.673 965.727 347.516 989.5 389.455C1013.27 431.395 1030 488.385 1039.14 556.418C1057.4 692.48 1045.24 872.601 998.315 1064.52Z" stroke="#2E2E2E"/>
<path d="M997.043 1069.55C946.986 1260.77 871.496 1426.92 789.931 1540.96C749.147 1597.97 706.86 1641.94 665.494 1669.51C624.128 1697.08 583.731 1708.21 546.683 1699.67C509.634 1691.13 479.333 1663.7 456.286 1621.29C433.239 1578.87 417.474 1521.52 409.485 1453.26C393.506 1316.74 408.642 1136.68 458.7 945.454C508.757 754.226 584.246 588.08 665.812 474.045C706.596 417.025 748.883 373.057 790.249 345.49C831.614 317.924 872.011 306.787 909.06 315.327C946.108 323.867 976.409 351.3 999.456 393.714C1022.5 436.129 1038.27 493.478 1046.26 561.74C1062.24 698.26 1047.1 878.318 997.043 1069.55Z" stroke="#2E2E2E"/>
<path d="M995.688 1074.55C942.513 1265.03 864.354 1429.94 780.991 1542.58C739.308 1598.9 696.341 1642.13 654.567 1668.96C612.792 1695.79 572.259 1706.19 535.397 1696.96C498.535 1687.73 468.727 1659.72 446.412 1616.84C424.098 1573.96 409.304 1516.27 402.459 1447.8C388.769 1310.87 406.879 1130.93 460.054 940.448C513.229 749.97 591.389 585.063 674.751 472.426C716.434 416.106 759.401 372.876 801.176 346.045C842.95 319.215 883.483 308.812 920.345 318.041C957.207 327.27 987.015 355.284 1009.33 398.16C1031.64 441.037 1046.44 498.728 1053.28 567.198C1066.97 704.134 1048.86 884.075 995.688 1074.55Z" stroke="#2E2E2E"/>
<path d="M994.253 1079.54C937.976 1269.21 857.17 1432.83 772.035 1544.03C729.467 1599.63 685.833 1642.11 643.662 1668.2C601.492 1694.29 560.835 1703.95 524.171 1694.04C487.507 1684.12 458.2 1655.53 436.625 1612.21C415.049 1568.88 401.232 1510.87 395.533 1442.21C384.135 1304.9 405.214 1125.13 461.49 935.461C517.767 745.79 598.573 582.173 683.708 470.968C726.276 415.365 769.91 372.886 812.08 346.8C854.25 320.714 894.908 311.047 931.572 320.963C968.236 330.878 997.543 359.466 1019.12 402.791C1040.69 446.116 1054.51 504.131 1060.21 572.788C1071.61 710.099 1050.53 889.868 994.253 1079.54Z" stroke="#2E2E2E"/>
<path d="M992.735 1084.5C933.374 1273.31 849.946 1435.59 763.065 1545.32C719.624 1600.2 675.336 1641.91 632.783 1667.24C590.23 1692.58 549.461 1701.5 513.006 1690.91C476.551 1680.31 447.754 1651.15 426.925 1607.39C406.095 1563.63 393.259 1505.31 388.708 1436.49C379.605 1298.84 403.646 1119.3 463.007 930.497C522.368 741.692 605.796 579.415 692.677 469.676C736.118 414.806 780.406 373.092 822.959 347.758C865.512 322.424 906.281 313.497 942.736 324.095C979.191 334.694 1007.99 363.846 1028.82 407.607C1049.65 451.368 1062.48 509.689 1067.03 578.513C1076.14 716.156 1052.1 895.698 992.735 1084.5Z" stroke="#2E2E2E"/>
<path d="M991.138 1089.44C928.71 1277.33 842.685 1438.21 754.085 1546.45C709.784 1600.57 664.857 1641.51 621.933 1666.08C579.011 1690.66 538.142 1698.84 501.907 1687.56C465.672 1676.29 437.394 1646.58 417.317 1602.39C397.24 1558.21 385.388 1499.6 381.986 1430.63C375.182 1292.7 402.177 1113.44 464.605 925.555C527.032 737.673 613.057 576.785 701.658 468.547C745.959 414.426 790.886 373.49 833.809 348.916C876.732 324.342 917.601 316.157 953.836 327.435C990.071 338.714 1018.35 368.422 1038.43 412.605C1058.5 456.788 1070.35 515.397 1073.76 584.366C1080.56 722.3 1053.57 901.562 991.138 1089.44Z" stroke="#2E2E2E"/>
<path d="M989.46 1094.36C923.985 1281.26 835.39 1440.71 745.097 1547.42C699.95 1600.77 654.396 1640.92 611.116 1664.73C567.836 1688.53 526.88 1695.97 490.877 1684.02C454.873 1672.06 427.123 1641.81 407.804 1597.22C388.485 1552.62 377.622 1493.74 375.369 1424.65C370.865 1286.47 400.808 1107.54 466.283 920.64C531.757 733.737 620.353 574.288 710.645 467.582C755.793 414.228 801.347 374.081 844.627 350.275C887.907 326.469 928.862 319.028 964.866 330.983C1000.87 342.938 1028.62 373.193 1047.94 417.785C1067.26 462.377 1078.12 521.257 1080.37 590.35C1084.88 728.533 1054.93 907.458 989.46 1094.36Z" stroke="#2E2E2E"/>
<path d="M987.702 1099.25C919.2 1285.12 828.061 1443.08 736.103 1548.22C690.124 1600.79 643.957 1640.14 600.333 1663.17C556.71 1686.2 515.68 1692.89 479.918 1680.26C444.156 1667.64 416.942 1636.84 398.388 1591.86C379.833 1546.87 369.961 1487.74 368.86 1418.54C366.658 1280.15 399.537 1101.62 468.04 915.751C536.542 729.885 627.681 571.923 719.639 466.783C765.618 414.211 811.785 374.866 855.409 351.835C899.032 328.804 940.062 322.109 975.824 334.737C1011.59 347.365 1038.8 378.157 1057.35 423.145C1075.91 468.132 1085.78 527.265 1086.88 596.461C1089.08 734.851 1056.2 913.385 987.702 1099.25Z" stroke="#2E2E2E"/>
<path d="M985.865 1104.11C914.357 1288.88 820.702 1445.31 727.107 1548.86C680.309 1600.63 633.544 1639.16 589.59 1661.41C545.636 1683.66 504.544 1689.6 469.035 1676.31C433.527 1663.01 406.857 1631.69 389.072 1586.32C371.287 1540.95 362.41 1481.58 362.46 1412.31C362.56 1273.75 398.367 1095.66 469.876 910.89C541.385 726.118 635.04 569.69 728.634 466.147C775.433 414.374 822.198 375.844 866.152 353.594C910.106 331.344 951.197 325.399 986.706 338.696C1022.22 351.993 1048.88 383.313 1066.67 428.682C1084.45 474.051 1093.33 533.418 1093.28 602.697C1093.18 741.251 1057.37 919.341 985.865 1104.11Z" stroke="#2E2E2E"/>
<path d="M983.951 1108.94C909.457 1292.57 813.315 1447.41 718.112 1549.32C670.51 1600.28 623.161 1637.99 578.89 1659.45C534.619 1680.91 493.477 1686.11 458.232 1672.14C422.987 1658.18 396.87 1626.34 379.86 1580.61C362.851 1534.87 354.971 1475.29 356.172 1405.95C358.574 1267.27 397.298 1089.68 471.792 906.056C546.286 722.434 642.428 567.589 737.63 465.675C785.233 414.717 832.582 377.012 876.853 355.551C921.124 334.09 962.265 328.895 997.511 342.857C1032.76 356.819 1058.87 388.658 1075.88 434.395C1092.89 480.131 1100.77 539.715 1099.57 609.055C1097.17 747.731 1058.44 925.322 983.951 1108.94Z" stroke="#2E2E2E"/>
<path d="M981.958 1113.74C904.502 1296.16 805.902 1449.38 709.12 1549.63C660.728 1599.76 612.809 1636.63 568.234 1657.29C523.66 1677.96 482.482 1682.4 447.511 1667.78C412.54 1653.16 386.983 1620.81 370.754 1574.72C354.525 1528.63 347.645 1468.84 349.997 1399.46C354.701 1260.71 396.33 1083.67 473.785 901.255C551.241 718.839 649.841 565.623 746.623 465.369C795.015 415.241 842.934 378.373 887.509 357.707C932.083 337.041 973.261 332.599 1008.23 347.221C1043.2 361.844 1068.76 394.192 1084.99 440.282C1101.22 486.373 1108.1 546.155 1105.75 615.535C1101.04 754.291 1059.41 931.328 981.958 1113.74Z" stroke="#2E2E2E"/>
<path d="M979.887 1118.51C899.493 1299.67 798.465 1451.21 700.133 1549.77C650.966 1599.05 602.492 1635.07 557.627 1654.94C512.763 1674.8 471.561 1678.49 436.875 1663.21C402.189 1647.93 377.2 1615.09 361.757 1568.66C346.313 1522.23 340.434 1462.26 343.937 1392.86C350.941 1254.07 395.462 1077.64 475.856 896.486C556.25 715.331 657.278 563.792 755.61 465.229C804.777 415.945 853.251 379.926 898.116 360.062C942.98 340.197 984.183 336.508 1018.87 351.787C1053.55 367.066 1078.54 399.913 1093.99 446.343C1109.43 492.774 1115.31 552.736 1111.81 622.135C1104.8 760.929 1060.28 937.359 979.887 1118.51Z" stroke="#2E2E2E"/>
<path d="M977.74 1123.25C894.432 1303.09 791.007 1452.9 691.155 1549.75C641.228 1598.17 592.213 1633.33 547.072 1652.39C501.932 1671.44 460.717 1674.38 426.327 1658.45C391.937 1642.52 367.524 1609.18 352.871 1562.42C338.217 1515.67 333.342 1455.54 337.993 1386.15C347.296 1247.36 394.695 1071.59 478.003 891.751C561.311 711.913 664.736 562.097 764.588 465.253C814.515 416.831 863.53 381.671 908.671 362.614C953.811 343.557 995.026 340.622 1029.42 356.553C1063.81 372.484 1088.22 405.82 1102.87 452.576C1117.53 499.332 1122.4 559.456 1117.75 628.852C1108.45 767.642 1061.05 943.411 977.74 1123.25Z" stroke="#2E2E2E"/>
</svg>
